HIERARCHY
ROOT Hips
{
  OFFSET 0 89.5177 0.535
  CHANNELS 6 Xposition Yposition Zposition Zrotation Xrotation Yrotation
  JOINT Spine
  {
    OFFSET 12.0259 -0.162855 1.69034e-005
    CHANNELS 3 Zrotation Xrotation Yrotation
    JOINT Spine1
    {
      OFFSET 15.3169 -0.0121922 0
      CHANNELS 3 Zrotation Xrotation Yrotation
      JOINT Spine2
      {
        OFFSET 15.3176 -0.0121908 0
        CHANNELS 3 Zrotation Xrotation Yrotation
        JOINT Neck
        {
          OFFSET 19.9142 1.56338 0
          CHANNELS 3 Zrotation Xrotation Yrotation
          JOINT Head
          {
            OFFSET 6.92651 0 0
            CHANNELS 3 Zrotation Xrotation Yrotation
            End Site
            {
              OFFSET 20.7666 0 0
            }
          }
          JOINT LeftShoulder
          {
            OFFSET -6.20654 0.708824 7.28219
            CHANNELS 3 Zrotation Xrotation Yrotation
            JOINT LeftArm
            {
              OFFSET 14.108 0 -1.52588e-005
              CHANNELS 3 Zrotation Xrotation Yrotation
              JOINT LeftForeArm
              {
                OFFSET 28.5802 0 0
                CHANNELS 3 Zrotation Xrotation Yrotation
                JOINT LeftHand
                {
                  OFFSET 27.092 0 0
                  CHANNELS 3 Zrotation Xrotation Yrotation
                  End Site
                  {
                    OFFSET 9.55928 -0.186424 0.145352
                  }
                }
              }
            }
          }
          JOINT RightShoulder
          {
            OFFSET -6.20654 0.708866 -7.28218
            CHANNELS 3 Zrotation Xrotation Yrotation
            JOINT RightArm
            {
              OFFSET 14.108 0 1.52588e-005
              CHANNELS 3 Zrotation Xrotation Yrotation
              JOINT RightForeArm
              {
                OFFSET 28.5802 0 0
                CHANNELS 3 Zrotation Xrotation Yrotation
                JOINT RightHand
                {
                  OFFSET 27.092 0 0
                  CHANNELS 3 Zrotation Xrotation Yrotation
                  End Site
                  {
                    OFFSET 9.55929 -0.186417 -0.145354
                  }
                }
              }
            }
          }
        }
      }
    }
  }
  JOINT LeftUpLeg
  {
    OFFSET 0.005 -0.535 8.837
    CHANNELS 3 Zrotation Xrotation Yrotation
    JOINT LeftLeg
    {
      OFFSET 39.9035 0 0
      CHANNELS 3 Zrotation Xrotation Yrotation
      JOINT LeftFoot
      {
        OFFSET 39.6689 0 0
        CHANNELS 3 Zrotation Xrotation Yrotation
        JOINT LeftToe
        {
          OFFSET 10.1624 13.6296 0
          CHANNELS 3 Zrotation Xrotation Yrotation
          End Site
          {
            OFFSET 8.38147 0 0
          }
        }
      }
    }
  }
  JOINT RightUpLeg
  {
    OFFSET 0.005 -0.535 -8.837
    CHANNELS 3 Zrotation Xrotation Yrotation
    JOINT RightLeg
    {
      OFFSET 39.9035 0 0
      CHANNELS 3 Zrotation Xrotation Yrotation
      JOINT RightFoot
      {
        OFFSET 39.6689 0 0
        CHANNELS 3 Zrotation Xrotation Yrotation
        JOINT RightToe
        {
          OFFSET 10.1624 13.6296 0
          CHANNELS 3 Zrotation Xrotation Yrotation
          End Site
          {
            OFFSET 8.38147 0 0
          }
        }
      }
    }
  }
}
MOTION
Frames:	6
Frame Time:	0.0333333
207.421 90.1463 -141.574 -146.619 -81.523 125.357 -1.14074 -1.23044 -0.85645 -2.30054 -2.44299 -1.73765 -2.30054 -2.44299 -1.73766 -8.30708e-012 -9.0191e-006 -5.27751e-005 15.4749 2.83338 -2.12581 -177.552 -29.2273 -84.9957 -16.2756 -65.8127 20.6152 -4.03375e-006 -3.18055e-015 -1.59028e-015 -24.8755 -27.5888 -22.1492 -178.153 20.8859 84.8313 -25.8696 33.646 -7.13741 -6.58897 3.18055e-015 3.97569e-016 -74.0796 66.168 78.1856 -4.25613 12.2621 179.621 -8.52472 0 -1.98785e-016 12.9693 4.74776 -7.54115 90 3.85145e-016 -7.95139e-016 -5.33327 -8.2935 175.734 -6.45929 -1.59028e-015 -3.97569e-016 11.2598 -4.23296 6.70777 90 3.97569e-016 -1.59028e-015 
207.43 90.1426 -141.613 -146.577 -81.5232 125.392 -1.15267 -1.22439 -0.870381 -2.32459 -2.43041 -1.76564 -2.32459 -2.43041 -1.76565 -8.30768e-012 -9.0191e-006 -5.27751e-005 15.9097 2.7479 -1.99073 -177.515 -29.2119 -84.9173 -16.6453 -65.5256 20.3782 -5.52628e-006 0 3.18055e-015 -25.0279 -27.707 -22.3085 -178.132 20.917 84.7798 -25.9502 33.2775 -7.07875 -6.58783 0 1.59028e-015 -74.2943 66.0611 78.4278 -4.2333 12.2907 179.637 -8.53995 -1.59028e-015 3.97569e-016 13.0183 4.76676 -7.57203 90 -1.51573e-015 -3.97569e-016 -5.3269 -8.37875 175.742 -6.50555 -6.36111e-015 -0 11.3319 -4.28172 6.78597 90 7.95139e-016 3.18055e-015 
207.44 90.141 -141.65 -146.489 -81.5047 125.456 -1.67595 -0.77495 -1.3051 -3.36954 -1.51073 -2.63247 -3.36954 -1.51073 -2.63248 -8.30748e-012 -9.0191e-006 -5.27751e-005 19.0264 1.31501 0.628717 9.01283 -28.1843 108.563 30.1483 -11.4953 -15.3922 -5.52624e-006 1.59028e-015 -9.93923e-016 101.854 9.6248 124.914 0.615706 19.9406 -91.8047 -148.666 -67.1056 -173.725 -8.13432 3.18055e-015 3.18055e-015 -34.2062 42.0784 30.39 -4.22684 12.286 179.667 -8.55326 -2.38542e-015 -3.97569e-016 13.0228 4.76178 -7.56407 90 -3.85145e-016 3.97569e-016 -5.27583 -8.27731 175.778 -6.43771 0 1.19271e-015 11.2681 -4.22986 6.703 90 3.97569e-016 1.59028e-015 
207.44 90.1392 -141.701 -146.321 -81.5001 125.614 -1.68237 -0.769379 -1.31995 -3.38245 -1.49901 -2.66207 -3.38245 -1.49901 -2.66208 -8.30768e-012 -9.0191e-006 -5.27751e-005 19.3781 1.27467 0.608613 8.97724 -28.128 108.526 30.1714 -11.0676 -15.171 -5.52614e-006 1.59028e-015 -6.95746e-016 102.205 9.723 124.245 0.618901 19.9938 -91.8094 -148.5 -66.9943 -173.661 -8.09493 -3.18055e-015 -0 -34.0233 42.1215 30.2332 -4.17676 12.3059 179.669 -8.54569 -2.38542e-015 1.98785e-016 13.0468 4.7464 -7.53977 90 3.35449e-016 7.95139e-016 -5.21101 -8.28939 175.787 -6.40414 0 3.97569e-016 11.2871 -4.24487 6.72724 90 0 -0 
207.436 90.137 -141.756 -146.058 -81.5029 125.872 -1.69068 -0.763868 -1.33198 -3.39907 -1.48743 -2.68608 -3.39907 -1.48743 -2.68609 -8.30718e-012 -9.0191e-006 -5.27751e-005 19.7129 1.2565 0.552508 8.96221 -28.1222 108.5 30.0967 -11.2541 -15.0749 -5.52598e-006 3.18055e-015 1.09332e-015 102.36 9.75121 123.921 0.625554 19.9868 -91.8295 -148.504 -67.0029 -173.644 -8.1444 -6.36111e-015 -3.18055e-015 -33.8305 42.2545 30.0967 -4.08554 12.325 179.67 -8.49538 -7.95139e-016 -1.98785e-016 13.0663 4.76035 -7.56262 90 1.57785e-015 -7.95139e-016 -5.14199 -8.32259 175.785 -6.37857 0 3.97569e-016 11.3115 -4.27925 6.78242 90 1.09332e-015 1.59028e-015 
207.424 90.135 -141.802 -145.937 -81.4748 125.978 -1.70372 -0.753822 -1.33579 -3.42496 -1.46693 -2.69354 -3.42496 -1.46693 -2.69355 -8.30758e-012 -9.0191e-006 -5.27751e-005 19.9579 1.27064 0.398974 8.97216 -28.1627 108.496 30.05 -11.3915 -15.0423 -5.52574e-006 -1.59028e-015 9.93923e-017 102.406 9.6539 123.546 0.642182 19.977 -91.879 -148.483 -67.1151 -173.6 -8.10005 -3.18055e-015 -3.18055e-015 -33.9081 42.2204 30.1587 -4.06178 12.3495 179.67 -8.49201 7.95139e-016 -1.98785e-016 13.1057 4.75832 -7.55986 90 1.81391e-015 -3.97569e-016 -5.11712 -8.24929 175.79 -6.35497 1.59028e-015 -0 11.2806 -4.25845 6.74907 90 9.93923e-017 -0 
